<svg width="512" height="512" viewBox="0 0 512 512" fill="none" xmlns="http://www.w3.org/2000/svg">
<rect width="512" height="512" fill="#1F1F1F"/>
<g filter="url(#filter0_d_2_160)">
<g filter="url(#filter1_i_2_160)">
<path d="M56 104C56 77.4903 77.4903 56 104 56H408C434.51 56 456 77.4903 456 104V408C456 434.51 434.51 456 408 456H104C77.4903 456 56 434.51 56 408V104Z" fill="url(#paint0_linear_2_160)"/>
</g>
<g filter="url(#filter2_d_2_160)">
<path d="M104 61H408C431.748 61 451 80.2518 451 104V408C451 431.748 431.748 451 408 451H104C80.2518 451 61 431.748 61 408V104C61 80.2518 80.2518 61 104 61Z" stroke="url(#paint1_linear_2_160)" style="mix-blend-mode:screen" stroke-width="10" shape-rendering="crispEdges"/>
</g>
<g filter="url(#filter3_d_2_160)">
<path d="M148 121H364C378.912 121 391 133.088 391 148V364C391 378.912 378.912 391 364 391H148C133.088 391 121 378.912 121 364V148C121 133.088 133.088 121 148 121Z" stroke="url(#paint2_linear_2_160)" style="mix-blend-mode:screen" stroke-width="10" shape-rendering="crispEdges"/>
</g>
<g filter="url(#filter4_d_2_160)">
<path d="M195 176H317C327.493 176 336 184.507 336 195V317C336 327.493 327.493 336 317 336H195C184.507 336 176 327.493 176 317V195C176 184.507 184.507 176 195 176Z" stroke="url(#paint3_linear_2_160)" style="mix-blend-mode:screen" stroke-width="10" shape-rendering="crispEdges"/>
</g>
</g>
<defs>
<filter id="filter0_d_2_160" x="9.6" y="9.6" width="492.8" height="492.8" filterUnits="userSpaceOnUse" color-interpolation-filters="sRGB">
<feFlood flood-opacity="0" result="BackgroundImageFix"/>
<feColorMatrix in="SourceAlpha" type="matrix" values="0 0 0 0 0 0 0 0 0 0 0 0 0 0 0 0 0 0 127 0" result="hardAlpha"/>
<feOffset/>
<feGaussianBlur stdDeviation="23.2"/>
<feComposite in2="hardAlpha" operator="out"/>
<feColorMatrix type="matrix" values="0 0 0 0 0.0313726 0 0 0 0 0.196078 0 0 0 0 0.415686 0 0 0 1 0"/>
<feBlend mode="normal" in2="BackgroundImageFix" result="effect1_dropShadow_2_160"/>
<feBlend mode="normal" in="SourceGraphic" in2="effect1_dropShadow_2_160" result="shape"/>
</filter>
<filter id="filter1_i_2_160" x="56" y="56" width="400" height="404" filterUnits="userSpaceOnUse" color-interpolation-filters="sRGB">
<feFlood flood-opacity="0" result="BackgroundImageFix"/>
<feBlend mode="normal" in="SourceGraphic" in2="BackgroundImageFix" result="shape"/>
<feColorMatrix in="SourceAlpha" type="matrix" values="0 0 0 0 0 0 0 0 0 0 0 0 0 0 0 0 0 0 127 0" result="hardAlpha"/>
<feOffset dy="4"/>
<feGaussianBlur stdDeviation="50"/>
<feComposite in2="hardAlpha" operator="arithmetic" k2="-1" k3="1"/>
<feColorMatrix type="matrix" values="0 0 0 0 0 0 0 0 0 0 0 0 0 0 0 0 0 0 0.25 0"/>
<feBlend mode="normal" in2="shape" result="effect1_innerShadow_2_160"/>
</filter>
<filter id="filter2_d_2_160" x="56" y="56" width="400" height="404" filterUnits="userSpaceOnUse" color-interpolation-filters="sRGB">
<feFlood flood-opacity="0" result="BackgroundImageFix"/>
<feColorMatrix in="SourceAlpha" type="matrix" values="0 0 0 0 0 0 0 0 0 0 0 0 0 0 0 0 0 0 127 0" result="hardAlpha"/>
<feOffset dy="4"/>
<feComposite in2="hardAlpha" operator="out"/>
<feColorMatrix type="matrix" values="0 0 0 0 0 0 0 0 0 0 0 0 0 0 0 0 0 0 0.25 0"/>
<feBlend mode="normal" in2="BackgroundImageFix" result="effect1_dropShadow_2_160"/>
<feBlend mode="normal" in="SourceGraphic" in2="effect1_dropShadow_2_160" result="shape"/>
</filter>
<filter id="filter3_d_2_160" x="89" y="91" width="334" height="334" filterUnits="userSpaceOnUse" color-interpolation-filters="sRGB">
<feFlood flood-opacity="0" result="BackgroundImageFix"/>
<feColorMatrix in="SourceAlpha" type="matrix" values="0 0 0 0 0 0 0 0 0 0 0 0 0 0 0 0 0 0 127 0" result="hardAlpha"/>
<feOffset dy="2"/>
<feGaussianBlur stdDeviation="13.5"/>
<feComposite in2="hardAlpha" operator="out"/>
<feColorMatrix type="matrix" values="0 0 0 0 0 0 0 0 0 0 0 0 0 0 0 0 0 0 0.25 0"/>
<feBlend mode="normal" in2="BackgroundImageFix" result="effect1_dropShadow_2_160"/>
<feBlend mode="normal" in="SourceGraphic" in2="effect1_dropShadow_2_160" result="shape"/>
</filter>
<filter id="filter4_d_2_160" x="127.7" y="128.7" width="256.6" height="256.6" filterUnits="userSpaceOnUse" color-interpolation-filters="sRGB">
<feFlood flood-opacity="0" result="BackgroundImageFix"/>
<feColorMatrix in="SourceAlpha" type="matrix" values="0 0 0 0 0 0 0 0 0 0 0 0 0 0 0 0 0 0 127 0" result="hardAlpha"/>
<feOffset dy="1"/>
<feGaussianBlur stdDeviation="21.65"/>
<feComposite in2="hardAlpha" operator="out"/>
<feColorMatrix type="matrix" values="0 0 0 0 0 0 0 0 0 0 0 0 0 0 0 0 0 0 0.25 0"/>
<feBlend mode="normal" in2="BackgroundImageFix" result="effect1_dropShadow_2_160"/>
<feBlend mode="normal" in="SourceGraphic" in2="effect1_dropShadow_2_160" result="shape"/>
</filter>
<linearGradient id="paint0_linear_2_160" x1="56" y1="56" x2="456" y2="456" gradientUnits="userSpaceOnUse">
<stop stop-color="#08326A"/>
<stop offset="0.25" stop-color="#00315C"/>
<stop offset="0.5" stop-color="#003454"/>
<stop offset="0.75" stop-color="#00536C"/>
<stop offset="1" stop-color="#00697B"/>
</linearGradient>
<linearGradient id="paint1_linear_2_160" x1="56" y1="56" x2="456" y2="456" gradientUnits="userSpaceOnUse">
<stop stop-color="#0080F8"/>
<stop offset="1" stop-color="#0DF7DC"/>
</linearGradient>
<linearGradient id="paint2_linear_2_160" x1="116" y1="116" x2="396" y2="396" gradientUnits="userSpaceOnUse">
<stop stop-color="#0080F8"/>
<stop offset="1" stop-color="#0DF7DC"/>
</linearGradient>
<linearGradient id="paint3_linear_2_160" x1="171" y1="171" x2="341" y2="341" gradientUnits="userSpaceOnUse">
<stop stop-color="#0080F8"/>
<stop offset="1" stop-color="#0DF7DC"/>
</linearGradient>
</defs>
</svg>
